<svg xmlns="http://www.w3.org/2000/svg" viewBox="0 0 180 180" role="img" aria-label="captain runner">
  <defs>
    <linearGradient id="coat" x1="0" x2="1" y1="0" y2="1"><stop stop-color="#f8f0d0"/><stop offset="1" stop-color="#c89142"/></linearGradient>
  </defs>
  <ellipse cx="90" cy="160" rx="56" ry="10" fill="#4b2a12" opacity=".18"/>
  <circle cx="87" cy="51" r="27" fill="#ffd1a2"/>
  <path d="M51 42c17-18 52-22 76 0l-9 14H60z" fill="#1f3f7a" stroke="#132852" stroke-width="4"/>
  <path d="M67 32h42l8 11H58z" fill="#f8f0d0" stroke="#132852" stroke-width="4"/>
  <path d="M57 84h62l12 50H45z" fill="url(#coat)" stroke="#7a4a20" stroke-width="5" stroke-linejoin="round"/>
  <path d="M77 85v48M98 85v48" stroke="#1f3f7a" stroke-width="5" stroke-linecap="round"/>
  <path d="M56 91 27 117" stroke="#ffd1a2" stroke-width="15" stroke-linecap="round"/>
  <path d="M119 90l32 23" stroke="#ffd1a2" stroke-width="15" stroke-linecap="round"/>
  <path d="M65 129l-28 24" stroke="#1f3f7a" stroke-width="17" stroke-linecap="round"/>
  <path d="M108 129l33 25" stroke="#1f3f7a" stroke-width="17" stroke-linecap="round"/>
  <path d="M28 155h31M133 155h31" stroke="#2b1a10" stroke-width="12" stroke-linecap="round"/>
  <circle cx="77" cy="52" r="4" fill="#172033"/>
  <circle cx="97" cy="52" r="4" fill="#172033"/>
  <path d="M77 65c8 6 18 6 27 0" fill="none" stroke="#7a2d18" stroke-width="4" stroke-linecap="round"/>
</svg>
