<svg xmlns="http://www.w3.org/2000/svg" viewBox="0 0 180 180" role="img" aria-label="knight runner">
  <defs>
    <linearGradient id="steel" x1="0" x2="1" y1="0" y2="1"><stop stop-color="#f3f7fb"/><stop offset=".48" stop-color="#9aa7b2"/><stop offset="1" stop-color="#5e6875"/></linearGradient>
    <linearGradient id="shield" x1="0" x2="1" y1="0" y2="1"><stop stop-color="#2f80ed"/><stop offset="1" stop-color="#17408a"/></linearGradient>
  </defs>
  <ellipse cx="91" cy="160" rx="56" ry="10" fill="#4b2a12" opacity=".18"/>
  <circle cx="88" cy="48" r="28" fill="url(#steel)" stroke="#4d5662" stroke-width="5"/>
  <path d="M62 47h52v13H62z" fill="#303846"/>
  <path d="M55 82h64l12 50H47z" fill="url(#steel)" stroke="#4d5662" stroke-width="5" stroke-linejoin="round"/>
  <path d="M74 84v47M95 84v47" stroke="#707b87" stroke-width="4"/>
  <path d="M56 91 26 116" stroke="#87919f" stroke-width="16" stroke-linecap="round"/>
  <path d="M122 90l31 22" stroke="#87919f" stroke-width="16" stroke-linecap="round"/>
  <path d="M64 127l-27 25" stroke="#596473" stroke-width="17" stroke-linecap="round"/>
  <path d="M108 128l32 25" stroke="#596473" stroke-width="17" stroke-linecap="round"/>
  <path d="M27 154h31M132 155h31" stroke="#303846" stroke-width="12" stroke-linecap="round"/>
  <path d="M129 78l34 11v30c0 25-13 39-34 49-22-10-35-24-35-49V89z" fill="url(#shield)" stroke="#273349" stroke-width="4"/>
  <path d="M129 89v57M107 115h44" stroke="#ffd45c" stroke-width="5" stroke-linecap="round"/>
  <path d="M94 17c18 2 31 12 34 27l20-6c-10-19-27-30-54-31z" fill="#d94030"/>
</svg>
