<svg xmlns="http://www.w3.org/2000/svg" viewBox="0 0 180 180" role="img" aria-label="pirate runner">
  <ellipse cx="89" cy="160" rx="56" ry="10" fill="#4b2a12" opacity=".18"/>
  <circle cx="86" cy="51" r="27" fill="#ffd1a2"/>
  <path d="M58 39c12-25 50-25 61 1-23-4-41-4-61-1z" fill="#2a1b16"/>
  <path d="M53 39h68l-10 20H64z" fill="#d94030" stroke="#8f1e16" stroke-width="4" stroke-linejoin="round"/>
  <path d="M59 84h58l11 48H48z" fill="#582f1c" stroke="#32190f" stroke-width="5" stroke-linejoin="round"/>
  <path d="M75 86v46" stroke="#f0d06a" stroke-width="5" stroke-linecap="round"/>
  <path d="M57 91 29 117" stroke="#ffd1a2" stroke-width="15" stroke-linecap="round"/>
  <path d="M117 89l31 23" stroke="#ffd1a2" stroke-width="15" stroke-linecap="round"/>
  <path d="M66 128l-29 25" stroke="#372116" stroke-width="17" stroke-linecap="round"/>
  <path d="M107 128l33 26" stroke="#372116" stroke-width="17" stroke-linecap="round"/>
  <path d="M28 155h31M132 155h31" stroke="#21120d" stroke-width="12" stroke-linecap="round"/>
  <path d="M90 50h22" stroke="#172033" stroke-width="5" stroke-linecap="round"/>
  <circle cx="75" cy="50" r="4" fill="#172033"/>
  <path d="M76 65c9 7 20 7 28 0" fill="none" stroke="#7a2d18" stroke-width="4" stroke-linecap="round"/>
  <path d="M126 62l23 18-18 23" fill="none" stroke="#f4efe2" stroke-width="8" stroke-linecap="round" stroke-linejoin="round"/>
</svg>
