<svg xmlns="http://www.w3.org/2000/svg" viewBox="0 0 180 180" role="img" aria-label="prince runner">
  <defs>
    <linearGradient id="cape" x1="0" x2="1" y1="0" y2="1"><stop stop-color="#e84032"/><stop offset="1" stop-color="#9f1d21"/></linearGradient>
    <linearGradient id="blue" x1="0" x2="1" y1="0" y2="1"><stop stop-color="#3c8df6"/><stop offset="1" stop-color="#1854b8"/></linearGradient>
  </defs>
  <ellipse cx="88" cy="159" rx="55" ry="10" fill="#4b2a12" opacity=".18"/>
  <path d="M62 70c-27 9-40 27-45 50 24-13 45-15 68-7z" fill="url(#cape)"/>
  <circle cx="84" cy="49" r="25" fill="#ffd1a2"/>
  <path d="M61 43c8-24 41-27 53-3-18-8-35-6-53 3z" fill="#6b3a1d"/>
  <path d="M57 25l9-18 12 12 9-17 10 17 13-12 8 18z" fill="#ffd45c" stroke="#9f6818" stroke-width="4" stroke-linejoin="round"/>
  <path d="M62 78h55l12 49H51z" fill="url(#blue)" stroke="#143c79" stroke-width="5" stroke-linejoin="round"/>
  <path d="M82 81v46" stroke="#ffd45c" stroke-width="6" stroke-linecap="round"/>
  <path d="M58 86 31 111" stroke="#ffd1a2" stroke-width="14" stroke-linecap="round"/>
  <path d="M116 88l32 22" stroke="#ffd1a2" stroke-width="14" stroke-linecap="round"/>
  <path d="M66 124l-27 27" stroke="#1f3f7a" stroke-width="16" stroke-linecap="round"/>
  <path d="M110 124l31 29" stroke="#1f3f7a" stroke-width="16" stroke-linecap="round"/>
  <path d="M29 153h30M133 154h32" stroke="#3b2314" stroke-width="12" stroke-linecap="round"/>
  <circle cx="75" cy="50" r="4" fill="#172033"/>
  <circle cx="94" cy="50" r="4" fill="#172033"/>
  <path d="M75 63c8 6 18 6 26 0" fill="none" stroke="#7a2d18" stroke-width="4" stroke-linecap="round"/>
</svg>
